<svg width="144" height="45" viewBox="0 0 144 45" fill="none" xmlns="http://www.w3.org/2000/svg">
<g clip-path="url(#clip0_1_463)">
<path d="M75.6549 11.3013C75.6549 12.9221 74.3543 14.2279 72.7399 14.2279C71.1255 14.2279 69.8249 12.9221 69.8249 11.3013C69.8249 9.68038 71.0806 8.37467 72.7399 8.37467C74.3992 8.4197 75.6549 9.72541 75.6549 11.3013ZM63.6362 17.1995C63.6362 17.4696 63.6362 17.9199 63.6362 17.9199C63.6362 17.9199 62.246 16.1189 59.2862 16.1189C54.398 16.1189 50.5861 19.8559 50.5861 25.0337C50.5861 30.1665 54.3531 33.9486 59.2862 33.9486C62.2908 33.9486 63.6362 32.1026 63.6362 32.1026V32.868C63.6362 33.2282 63.9053 33.4983 64.264 33.4983H67.8966V16.5691C67.8966 16.5691 64.578 16.5691 64.264 16.5691C63.9053 16.5691 63.6362 16.8843 63.6362 17.1995ZM63.6362 28.0504C62.9635 29.0409 61.6181 29.8964 60.0037 29.8964C57.1336 29.8964 54.9361 28.0954 54.9361 25.0337C54.9361 21.9721 57.1336 20.1711 60.0037 20.1711C61.5733 20.1711 63.0084 21.0716 63.6362 22.0171V28.0504ZM70.5873 16.5691H74.8925V33.4983H70.5873V16.5691ZM134.896 16.1189C131.936 16.1189 130.546 17.9199 130.546 17.9199V8.4197H126.241V33.4983C126.241 33.4983 129.56 33.4983 129.873 33.4983C130.232 33.4983 130.501 33.1832 130.501 32.868V32.1026C130.501 32.1026 131.892 33.9486 134.851 33.9486C139.74 33.9486 143.551 30.1665 143.551 25.0337C143.551 19.9009 139.74 16.1189 134.896 16.1189ZM134.179 29.8513C132.519 29.8513 131.219 28.9959 130.546 28.0053V21.9721C131.219 21.0716 132.654 20.1261 134.179 20.1261C137.049 20.1261 139.246 21.927 139.246 24.9887C139.246 28.0504 137.049 29.8513 134.179 29.8513ZM123.999 23.4579V33.5433H119.693V23.9531C119.693 21.1616 118.797 20.036 116.375 20.036C115.074 20.036 113.729 20.7114 112.877 21.7019V33.4983H108.572V16.5691H111.98C112.339 16.5691 112.608 16.8843 112.608 17.1995V17.9199C113.864 16.6141 115.523 16.1189 117.182 16.1189C119.066 16.1189 120.635 16.6592 121.891 17.7398C123.416 19.0004 123.999 20.6213 123.999 23.4579ZM98.1226 16.1189C95.1628 16.1189 93.7726 17.9199 93.7726 17.9199V8.4197H89.4674V33.4983C89.4674 33.4983 92.786 33.4983 93.0999 33.4983C93.4587 33.4983 93.7277 33.1832 93.7277 32.868V32.1026C93.7277 32.1026 95.118 33.9486 98.0778 33.9486C102.966 33.9486 106.778 30.1665 106.778 25.0337C106.823 19.9009 103.011 16.1189 98.1226 16.1189ZM97.4051 29.8513C95.7458 29.8513 94.4453 28.9959 93.7726 28.0053V21.9721C94.4453 21.0716 95.8803 20.1261 97.4051 20.1261C100.275 20.1261 102.473 21.927 102.473 24.9887C102.473 28.0504 100.275 29.8513 97.4051 29.8513ZM85.7452 16.1189C87.0457 16.1189 87.7184 16.344 87.7184 16.344V20.3512C87.7184 20.3512 84.1307 19.1355 81.8885 21.7019V33.5433H77.5833V16.5691C77.5833 16.5691 80.9018 16.5691 81.2158 16.5691C81.5745 16.5691 81.8436 16.8843 81.8436 17.1995V17.9199C82.6508 16.9743 84.3998 16.1189 85.7452 16.1189ZM41.0339 31.9675C40.8097 31.4272 40.5855 30.8419 40.3612 30.3466C40.0025 29.5362 39.6437 28.7708 39.3298 28.0504L39.2849 28.0053C36.1906 21.2517 32.872 14.408 29.374 7.65428L29.2395 7.38413C28.8807 6.70877 28.5219 5.98838 28.1632 5.26798C27.7147 4.45754 27.2663 3.60208 26.5487 2.79164C25.1137 0.99066 23.0508 0.00012207 20.8533 0.00012207C18.611 0.00012207 16.593 0.99066 15.1131 2.70159C14.4404 3.51203 13.9471 4.3675 13.4986 5.17794C13.1398 5.89833 12.7811 6.61872 12.4223 7.29409L12.2878 7.56423C8.83464 14.3179 5.4712 21.1616 2.37684 27.9153L2.332 28.0053C2.01807 28.7257 1.65931 29.4911 1.30054 30.3016C1.07631 30.7969 0.852084 31.3371 0.627855 31.9225C0.0448598 33.5884 -0.134523 35.1642 0.0897056 36.7851C0.583009 40.1619 2.8253 42.9985 5.91966 44.2592C7.08565 44.7544 8.29649 44.9796 9.55217 44.9796C9.91094 44.9796 10.3594 44.9345 10.7182 44.8895C12.1981 44.7094 13.7228 44.2141 15.2027 43.3587C17.0414 42.3231 18.7904 40.8373 20.7636 38.6761C22.7368 40.8373 24.5307 42.3231 26.3245 43.3587C27.8044 44.2141 29.3292 44.7094 30.8091 44.8895C31.1678 44.9345 31.6163 44.9796 31.9751 44.9796C33.2308 44.9796 34.4864 44.7544 35.6076 44.2592C38.7468 42.9985 40.9442 40.1169 41.4375 36.7851C41.7963 35.2093 41.6169 33.6334 41.0339 31.9675ZM20.8085 34.3088C18.3868 31.2471 16.8172 28.3655 16.279 25.9342C16.0548 24.8986 16.01 23.9982 16.1445 23.1877C16.2342 22.4673 16.5033 21.837 16.862 21.2967C17.7141 20.081 19.1492 19.3156 20.8085 19.3156C22.4678 19.3156 23.9477 20.036 24.7549 21.2967C25.1137 21.837 25.3827 22.4673 25.4724 23.1877C25.607 23.9982 25.5621 24.9437 25.3379 25.9342C24.7997 28.3205 23.2301 31.2021 20.8085 34.3088ZM38.7019 36.4249C38.388 38.7662 36.8184 40.7923 34.621 41.6928C33.5447 42.143 32.3787 42.2781 31.2127 42.143C30.0915 42.0079 28.9704 41.6478 27.8044 40.9724C26.19 40.0719 24.5755 38.6761 22.692 36.605C25.6518 32.958 27.4456 29.6262 28.1183 26.6546C28.4323 25.2588 28.4771 23.9982 28.3426 22.8275C28.1632 21.7019 27.7596 20.6664 27.1317 19.7659C25.7415 17.7398 23.4095 16.5691 20.8085 16.5691C18.2074 16.5691 15.8754 17.7848 14.4852 19.7659C13.8574 20.6664 13.4538 21.7019 13.2744 22.8275C13.095 23.9982 13.1398 25.3039 13.4986 26.6546C14.1713 29.6262 16.01 33.0031 18.9249 36.65C17.0863 38.7212 15.427 40.1169 13.8125 41.0174C12.6465 41.6928 11.5254 42.053 10.4042 42.188C9.1934 42.3231 8.02741 42.143 6.99596 41.7378C4.79851 40.8373 3.22891 38.8112 2.91499 36.4699C2.78045 35.3443 2.87015 34.2187 3.3186 32.958C3.45314 32.5078 3.67737 32.0575 3.9016 31.5172C4.21552 30.7969 4.57429 30.0314 4.93305 29.266L4.9779 29.176C8.07226 22.4673 11.3908 15.6236 14.844 8.95999L14.9785 8.68984C15.3373 8.01448 15.696 7.29409 16.0548 6.61872C16.4136 5.89833 16.8172 5.22296 17.3105 4.63764C18.2523 3.55705 19.5079 2.97174 20.8982 2.97174C22.2884 2.97174 23.5441 3.55705 24.4858 4.63764C24.9791 5.22296 25.3827 5.89833 25.7415 6.61872C26.1003 7.29409 26.459 8.01448 26.8178 8.68984L26.9523 8.95999C30.3606 15.6686 33.6792 22.5124 36.7736 29.221V29.266C37.1323 29.9864 37.4463 30.7969 37.805 31.5172C38.0293 32.0575 38.2535 32.5078 38.388 32.958C38.7468 34.1287 38.8813 35.2543 38.7019 36.4249Z" fill="#FAFAFA" fill-opacity="0.2"/>
</g>
<defs>
<clipPath id="clip0_1_463">
<rect width="143.551" height="44.9794" fill="white"/>
</clipPath>
</defs>
</svg>
