<svg width="144" height="45" viewBox="0 0 144 45" fill="none" xmlns="http://www.w3.org/2000/svg">
<g clip-path="url(#clip0_1_465)">
<path d="M18.2465 16.0495V20.8541H29.8415C29.5336 23.512 28.6102 25.5565 27.1736 26.8854C25.5319 28.5211 22.864 30.3611 18.2465 30.3611C11.1665 30.3611 5.62552 24.6365 5.62552 17.5829C5.62552 10.5293 11.0638 4.80462 18.2465 4.80462C22.0431 4.80462 24.9162 6.33801 26.9684 8.28031L30.3545 4.90685C27.4814 2.14675 23.5823 0 18.2465 0C8.4986 0 0.289795 7.8714 0.289795 17.5829C0.289795 27.2943 8.4986 35.1657 18.2465 35.1657C23.4797 35.1657 27.4814 33.4279 30.5597 30.2589C33.7407 27.0899 34.7668 22.5919 34.7668 19.014C34.7668 17.8895 34.6642 16.8673 34.5615 16.0495H18.2465Z" fill="#FAFAFA" fill-opacity="0.2"/>
<path d="M49.1322 12.0627C42.873 12.0627 37.6399 16.8673 37.6399 23.4098C37.6399 29.9522 42.7704 34.7569 49.1322 34.7569C55.494 34.7569 60.6245 30.0545 60.6245 23.512C60.6245 16.8673 55.494 12.0627 49.1322 12.0627ZM49.1322 30.3611C45.6435 30.3611 42.6678 27.4988 42.6678 23.512C42.6678 19.423 45.6435 16.6629 49.1322 16.6629C52.621 16.6629 55.5966 19.423 55.5966 23.512C55.5966 27.4988 52.621 30.3611 49.1322 30.3611Z" fill="#FAFAFA" fill-opacity="0.2"/>
<path d="M105.26 14.6183H105.055C103.926 13.2894 101.771 12.0627 99.0007 12.0627C93.2545 12.0627 88.3292 16.9695 88.3292 23.4098C88.3292 29.7478 93.2545 34.7569 99.0007 34.7569C101.771 34.7569 103.926 33.5301 105.055 32.2012H105.26V33.8368C105.26 38.1303 102.9 40.4815 99.2059 40.4815C96.1276 40.4815 94.2806 38.3348 93.4597 36.3925L89.1501 38.2325C90.3814 41.1971 93.7676 44.9795 99.3085 44.9795C105.157 44.9795 110.185 41.5038 110.185 33.1212V12.676H105.465V14.6183H105.26ZM99.5137 30.3611C96.025 30.3611 93.4597 27.3966 93.4597 23.512C93.4597 19.5252 96.1276 16.6629 99.5137 16.6629C102.9 16.6629 105.568 19.6274 105.568 23.6142C105.67 27.4988 103.002 30.3611 99.5137 30.3611Z" fill="#FAFAFA" fill-opacity="0.2"/>
<path d="M74.6821 12.0627C68.4229 12.0627 63.1898 16.8673 63.1898 23.4098C63.1898 29.9522 68.3203 34.7569 74.6821 34.7569C81.0439 34.7569 86.1744 30.0545 86.1744 23.512C86.1744 16.8673 81.0439 12.0627 74.6821 12.0627ZM74.6821 30.3611C71.1934 30.3611 68.2177 27.4988 68.2177 23.512C68.2177 19.423 71.1934 16.6629 74.6821 16.6629C78.1709 16.6629 81.1465 19.423 81.1465 23.512C81.1465 27.4988 78.1709 30.3611 74.6821 30.3611Z" fill="#FAFAFA" fill-opacity="0.2"/>
<path d="M113.982 0.511047H118.907V34.859H113.982V0.511047Z" fill="#FAFAFA" fill-opacity="0.2"/>
<path d="M134.093 30.3611C131.528 30.3611 129.784 29.2366 128.552 26.8855L143.841 20.6497L143.328 19.3207C142.405 16.7651 139.429 12.0627 133.58 12.0627C127.731 12.0627 122.806 16.6629 122.806 23.4098C122.806 29.7478 127.629 34.7569 134.093 34.7569C139.326 34.7569 142.302 31.5878 143.636 29.7478L139.737 27.1921C138.403 29.1344 136.659 30.3611 134.093 30.3611ZM133.785 16.3562C135.838 16.3562 137.582 17.3784 138.095 18.8096L127.834 23.1031C127.731 18.4007 131.22 16.3562 133.785 16.3562Z" fill="#FAFAFA" fill-opacity="0.2"/>
</g>
<defs>
<clipPath id="clip0_1_465">
<rect width="143.551" height="44.9794" fill="white" transform="translate(0.289795)"/>
</clipPath>
</defs>
</svg>
