<svg width="60" height="60" viewBox="0 0 60 60" fill="none" xmlns="http://www.w3.org/2000/svg">
<g id="vuesax/bold/global">
<path id="Vector" d="M19.125 52.275C19.05 52.275 18.95 52.325 18.875 52.325C14.025 49.925 10.075 45.95 7.64999 41.1C7.64999 41.025 7.69999 40.925 7.69999 40.85C10.75 41.75 13.9 42.425 17.025 42.95C17.575 46.1 18.225 49.225 19.125 52.275Z" fill="#F99300"/>
<path id="Vector_2" d="M52.35 41.125C49.875 46.1 45.75 50.125 40.725 52.55C41.675 49.375 42.475 46.175 43 42.95C46.15 42.425 49.25 41.75 52.3 40.85C52.275 40.95 52.35 41.05 52.35 41.125Z" fill="#F99300"/>
<path id="Vector_3" d="M52.55 19.275C49.4 18.325 46.225 17.55 43 17C42.475 13.775 41.7 10.575 40.725 7.45001C45.9 9.92501 50.075 14.1 52.55 19.275Z" fill="#F99300"/>
<path id="Vector_4" d="M19.125 7.72502C18.225 10.775 17.575 13.875 17.05 17.025C13.825 17.525 10.625 18.325 7.45001 19.275C9.87501 14.25 13.9 10.125 18.875 7.65002C18.95 7.65002 19.05 7.72502 19.125 7.72502Z" fill="#F99300"/>
<path id="Vector_5" d="M38.725 16.475C32.925 15.825 27.075 15.825 21.275 16.475C21.9 13.05 22.7 9.625 23.825 6.325C23.875 6.125 23.85 5.975 23.875 5.775C25.85 5.3 27.875 5 30 5C32.1 5 34.15 5.3 36.1 5.775C36.125 5.975 36.125 6.125 36.175 6.325C37.3 9.65 38.1 13.05 38.725 16.475Z" fill="#F99300"/>
<path id="Vector_6" d="M16.475 38.725C13.025 38.1 9.625 37.3 6.325 36.175C6.125 36.125 5.975 36.15 5.775 36.125C5.3 34.15 5 32.125 5 30C5 27.9 5.3 25.85 5.775 23.9C5.975 23.875 6.125 23.875 6.325 23.825C9.65 22.725 13.025 21.9 16.475 21.275C15.85 27.075 15.85 32.925 16.475 38.725Z" fill="#F99300"/>
<path id="Vector_7" d="M55 30C55 32.125 54.7 34.15 54.225 36.125C54.025 36.15 53.875 36.125 53.675 36.175C50.35 37.275 46.95 38.1 43.525 38.725C44.175 32.925 44.175 27.075 43.525 21.275C46.95 21.9 50.375 22.7 53.675 23.825C53.875 23.875 54.025 23.9 54.225 23.9C54.7 25.875 55 27.9 55 30Z" fill="#F99300"/>
<path id="Vector_8" d="M38.725 43.525C38.1 46.975 37.3 50.375 36.175 53.675C36.125 53.875 36.125 54.025 36.1 54.225C34.15 54.7 32.1 55 30 55C27.875 55 25.85 54.7 23.875 54.225C23.85 54.025 23.875 53.875 23.825 53.675C22.725 50.35 21.9 46.975 21.275 43.525C24.175 43.85 27.075 44.075 30 44.075C32.925 44.075 35.85 43.85 38.725 43.525Z" fill="#F99300"/>
<path id="Vector_9" d="M39.4083 39.4083C33.1556 40.1972 26.8444 40.1972 20.5917 39.4083C19.8028 33.1556 19.8028 26.8444 20.5917 20.5917C26.8444 19.8028 33.1556 19.8028 39.4083 20.5917C40.1972 26.8444 40.1972 33.1556 39.4083 39.4083Z" fill="#F99300"/>
</g>
</svg>
