<svg width="60" height="60" viewBox="0 0 60 60" fill="none" xmlns="http://www.w3.org/2000/svg">
<g id="group_share">
<path id="Ellipse 48" d="M22.5 15C22.5 15.9849 22.694 16.9602 23.0709 17.8701C23.4478 18.7801 24.0003 19.6069 24.6967 20.3033C25.3931 20.9997 26.2199 21.5522 27.1299 21.9291C28.0398 22.306 29.0151 22.5 30 22.5C30.9849 22.5 31.9602 22.306 32.8701 21.9291C33.7801 21.5522 34.6069 20.9997 35.3033 20.3033C35.9997 19.6069 36.5522 18.7801 36.9291 17.8701C37.306 16.9602 37.5 15.9849 37.5 15C37.5 14.0151 37.306 13.0398 36.9291 12.1299C36.5522 11.2199 35.9997 10.3931 35.3033 9.6967C34.6069 9.00026 33.7801 8.44781 32.8701 8.0709C31.9602 7.69399 30.9849 7.5 30 7.5C29.0151 7.5 28.0398 7.69399 27.1299 8.07091C26.2199 8.44782 25.3931 9.00026 24.6967 9.6967C24.0003 10.3931 23.4478 11.2199 23.0709 12.1299C22.694 13.0398 22.5 14.0151 22.5 15L22.5 15Z" stroke="#F99300" stroke-width="4"/>
<path id="Ellipse 49" d="M11.0945 34.7538C10.2416 35.2462 9.49396 35.9019 8.89438 36.6832C8.2948 37.4646 7.855 38.3565 7.60009 39.3078C7.34517 40.2592 7.28014 41.2514 7.4087 42.2279C7.53725 43.2044 7.85689 44.146 8.34934 44.999C8.8418 45.8519 9.49744 46.5995 10.2788 47.1991C11.0602 47.7987 11.952 48.2385 12.9034 48.4934C13.8547 48.7483 14.847 48.8133 15.8235 48.6848C16.8 48.5562 17.7416 48.2366 18.5945 47.7441C19.4475 47.2517 20.1951 46.596 20.7947 45.8147C21.3943 45.0333 21.8341 44.1414 22.089 43.1901C22.3439 42.2387 22.4089 41.2465 22.2804 40.27C22.1518 39.2935 21.8322 38.3519 21.3397 37.4989C20.8473 36.646 20.1916 35.8984 19.4102 35.2988C18.6289 34.6992 17.737 34.2594 16.7857 34.0045C15.8343 33.7496 14.8421 33.6846 13.8656 33.8131C12.8891 33.9417 11.9475 34.2613 11.0945 34.7538L11.0945 34.7538Z" stroke="#F99300" stroke-width="4"/>
<path id="Ellipse 49_2" d="M48.9055 34.7538C49.7584 35.2462 50.506 35.9019 51.1056 36.6832C51.7052 37.4646 52.145 38.3565 52.3999 39.3078C52.6548 40.2592 52.7199 41.2514 52.5913 42.2279C52.4627 43.2044 52.1431 44.146 51.6507 44.999C51.1582 45.8519 50.5026 46.5995 49.7212 47.1991C48.9398 47.7987 48.048 48.2385 47.0966 48.4934C46.1453 48.7483 45.153 48.8133 44.1765 48.6848C43.2 48.5562 42.2584 48.2366 41.4055 47.7441C40.5525 47.2517 39.8049 46.596 39.2053 45.8147C38.6057 45.0333 38.1659 44.1414 37.911 43.1901C37.6561 42.2387 37.5911 41.2465 37.7196 40.27C37.8482 39.2935 38.1678 38.3519 38.6603 37.4989C39.1527 36.646 39.8084 35.8984 40.5898 35.2988C41.3711 34.6992 42.263 34.2594 43.2143 34.0045C44.1657 33.7496 45.1579 33.6846 46.1344 33.8131C47.1109 33.9417 48.0525 34.2613 48.9055 34.7538L48.9055 34.7538Z" stroke="#F99300" stroke-width="4"/>
<path id="Subtract" fill-rule="evenodd" clip-rule="evenodd" d="M22.5809 16.1008C22.5271 15.7374 22.4998 15.3698 22.4998 15.0008C22.4998 14.0158 22.6938 13.0406 23.0707 12.1306C23.1556 11.9258 23.2493 11.7252 23.3515 11.5294C22.7534 11.719 22.1626 11.9345 21.581 12.1754C18.9118 13.281 16.4865 14.9015 14.4436 16.9444C12.4008 18.9873 10.7802 21.4126 9.67464 24.0817C8.56904 26.7509 8 29.6117 8 32.5008C8 34.0942 8.17311 35.6791 8.51387 37.2279C8.63236 37.0414 8.75924 36.8599 8.89421 36.684C9.49379 35.9026 10.2414 35.247 11.0944 34.7545C11.4139 34.57 11.746 34.4098 12.0876 34.2747C12.0294 33.6863 12 33.0942 12 32.5008C12 30.137 12.4656 27.7963 13.3702 25.6125C14.2747 23.4286 15.6006 21.4443 17.2721 19.7728C18.8071 18.2378 20.606 16.9943 22.5809 16.1008ZM37.4187 16.1007C39.3938 16.9941 41.1928 18.2377 42.7279 19.7728C44.3994 21.4443 45.7252 23.4286 46.6298 25.6125C47.5344 27.7963 48 30.137 48 32.5008C48 33.0943 47.9706 33.6864 47.9124 34.2749C48.2539 34.4099 48.5858 34.5701 48.9053 34.7545C49.7583 35.247 50.5059 35.9026 51.1054 36.684C51.2405 36.86 51.3675 37.0417 51.486 37.2283C51.8269 35.6793 52 34.0944 52 32.5008C52 29.6117 51.431 26.7509 50.3253 24.0817C49.2197 21.4126 47.5992 18.9873 45.5563 16.9444C43.5135 14.9015 41.0882 13.281 38.419 12.1754C37.8372 11.9344 37.2463 11.7189 36.648 11.5293C36.7503 11.7251 36.8441 11.9258 36.9289 12.1306C37.3058 13.0406 37.4998 14.0158 37.4998 15.0008C37.4998 15.3697 37.4726 15.7373 37.4187 16.1007ZM44.8388 48.743C44.6176 48.7337 44.3966 48.7145 44.1763 48.6855C43.1999 48.557 42.2583 48.2374 41.4053 47.7449C41.086 47.5606 40.7815 47.3534 40.494 47.1253C39.3755 47.9278 38.1661 48.6013 36.8883 49.1306C34.7044 50.0352 32.3638 50.5008 30 50.5008C27.6362 50.5008 25.2956 50.0352 23.1117 49.1306C21.8339 48.6013 20.6243 47.9277 19.5058 47.1251C19.2183 47.3533 18.9137 47.5605 18.5944 47.7449C17.7414 48.2374 16.7998 48.557 15.8233 48.6855C15.6032 48.7145 15.3823 48.7337 15.1612 48.743C17.0459 50.4648 19.2178 51.8473 21.581 52.8261C24.2501 53.9317 27.1109 54.5008 30 54.5008C32.8891 54.5008 35.7499 53.9317 38.419 52.8261C40.7822 51.8473 42.9541 50.4648 44.8388 48.743Z" fill="#F99300"/>
</g>
</svg>
