<svg width="145" height="31" viewBox="0 0 145 31" fill="none" xmlns="http://www.w3.org/2000/svg">
<g clip-path="url(#clip0_1_482)">
<path d="M51.54 17.6387L50.6844 20.0601H50.6131C50.4705 19.5141 50.209 18.6832 49.7812 17.6862L45.1942 6.17237H40.7023V24.5232H43.6732V13.1993C43.6732 12.4872 43.6732 11.68 43.6494 10.6829C43.6256 10.1844 43.5781 9.80456 43.5543 9.51968H43.6256C43.7682 10.2319 43.9346 10.7541 44.0534 11.0865L49.5673 24.4757H51.6588L57.1252 10.9678C57.244 10.6592 57.3628 10.042 57.4817 9.51968H57.553C57.4817 10.8728 57.4341 12.0836 57.4104 12.8195V24.452H60.5714V6.12489H56.2458L51.54 17.6387ZM63.566 11.3002H66.6556V24.452H63.566V11.3002ZM65.1346 5.74506C64.6117 5.74506 64.1839 5.93498 63.8274 6.26733C63.4709 6.59969 63.2808 7.02701 63.2808 7.54928C63.2808 8.04782 63.4709 8.47513 63.8274 8.80749C64.1839 9.13984 64.6117 9.30602 65.1346 9.30602C65.6574 9.30602 66.109 9.11611 66.4417 8.80749C66.7982 8.47513 66.9884 8.04782 66.9884 7.54928C66.9884 7.05075 66.7982 6.62343 66.4417 6.26733C66.1328 5.93498 65.6812 5.74506 65.1346 5.74506ZM77.6121 11.1815C77.0417 11.0628 76.4476 10.9915 75.8772 10.9915C74.4749 10.9915 73.1915 11.3002 72.122 11.9174C71.0525 12.5346 70.1969 13.3893 69.6503 14.4576C69.0799 15.5496 68.7947 16.8078 68.7947 18.2559C68.7947 19.5141 69.0799 20.6299 69.6265 21.6507C70.1731 22.6478 70.9337 23.4549 71.9556 24.0009C72.9301 24.547 74.0709 24.8318 75.3543 24.8318C76.8278 24.8318 78.0875 24.5232 79.0857 23.9535L79.1094 23.9297V21.0809L78.9906 21.1759C78.539 21.5083 78.0162 21.7931 77.4933 21.9593C76.9467 22.1492 76.4476 22.2442 76.0198 22.2442C74.7839 22.2442 73.8095 21.8881 73.1202 21.1047C72.4072 20.345 72.0507 19.3005 72.0507 17.9948C72.0507 16.6416 72.4072 15.5733 73.144 14.7899C73.8808 14.0065 74.8552 13.6029 76.0435 13.6029C77.0417 13.6029 78.0637 13.9353 78.9906 14.6L79.1094 14.695V11.68L79.0857 11.6563C78.6816 11.4901 78.2301 11.3002 77.6121 11.1815ZM87.8081 11.0865C87.0476 11.0865 86.3345 11.3239 85.7166 11.8224C85.1937 12.2498 84.8372 12.867 84.5283 13.6029H84.5045V11.3002H81.4148V24.452H84.5045V17.7336C84.5045 16.5941 84.7422 15.6445 85.265 14.9561C85.7879 14.2439 86.4534 13.8878 87.2615 13.8878C87.5467 13.8878 87.8319 13.959 88.1884 14.0065C88.5211 14.1015 88.7588 14.1964 88.9251 14.3151L89.044 14.4101V11.3239L88.9727 11.3002C88.7588 11.1577 88.331 11.0865 87.8081 11.0865ZM96.2215 11.0153C94.0588 11.0153 92.3238 11.6563 91.1117 12.9145C89.8758 14.1727 89.2816 15.9057 89.2816 18.0897C89.2816 20.1314 89.8996 21.7931 91.0879 23.0039C92.2762 24.1909 93.8924 24.8081 95.9126 24.8081C98.0278 24.8081 99.7153 24.1671 100.927 22.8852C102.163 21.6032 102.757 19.894 102.757 17.7811C102.757 15.692 102.187 14.0302 101.022 12.8195C99.9054 11.6088 98.2655 11.0153 96.2215 11.0153ZM98.6933 21.1284C98.1229 21.8644 97.2197 22.2205 96.1027 22.2205C94.9857 22.2205 94.0825 21.8644 93.4408 21.0809C92.7991 20.345 92.4901 19.2767 92.4901 17.9236C92.4901 16.5229 92.8229 15.4546 93.4408 14.695C94.0825 13.9353 94.9619 13.5554 96.0789 13.5554C97.1722 13.5554 98.0278 13.9115 98.6457 14.6475C99.2637 15.3834 99.5964 16.4517 99.5964 17.8523C99.5489 19.2767 99.2874 20.3925 98.6933 21.1284ZM109.65 16.7603C108.675 16.3567 108.057 16.0481 107.772 15.787C107.535 15.5496 107.416 15.2172 107.416 14.7899C107.416 14.4338 107.558 14.0777 107.915 13.8403C108.271 13.6029 108.675 13.4842 109.27 13.4842C109.792 13.4842 110.339 13.5792 110.862 13.7216C111.385 13.8641 111.86 14.0777 112.24 14.3626L112.359 14.4576V11.5613L112.288 11.5376C111.931 11.3951 111.456 11.2527 110.886 11.134C110.315 11.039 109.792 10.9915 109.365 10.9915C107.891 10.9915 106.679 11.3476 105.728 12.1311C104.778 12.867 104.326 13.8641 104.326 15.0273C104.326 15.6445 104.421 16.1906 104.635 16.6416C104.849 17.0927 105.158 17.52 105.586 17.8761C106.013 18.2084 106.631 18.5883 107.487 18.9444C108.2 19.253 108.747 19.4904 109.079 19.6803C109.412 19.8702 109.626 20.0839 109.792 20.2501C109.911 20.44 109.983 20.6774 109.983 20.986C109.983 21.8644 109.317 22.2917 107.962 22.2917C107.439 22.2917 106.893 22.1967 106.251 21.9831C105.609 21.7694 105.015 21.4608 104.516 21.1047L104.397 21.0097V24.0247L104.469 24.0484C104.92 24.2621 105.467 24.4045 106.132 24.5707C106.798 24.6894 107.392 24.7844 107.915 24.7844C109.507 24.7844 110.814 24.4283 111.741 23.6448C112.692 22.8852 113.191 21.9118 113.191 20.6536C113.191 19.7753 112.953 18.9918 112.43 18.3984C111.741 17.8286 110.886 17.2351 109.65 16.7603ZM121.343 11.0153C119.18 11.0153 117.445 11.6563 116.233 12.9145C115.021 14.1727 114.403 15.9057 114.403 18.0897C114.403 20.1314 115.021 21.7931 116.209 23.0039C117.398 24.1909 119.014 24.8081 121.034 24.8081C123.149 24.8081 124.837 24.1671 126.049 22.8852C127.285 21.6032 127.879 19.894 127.879 17.7811C127.879 15.692 127.308 14.0302 126.144 12.8195C125.027 11.6088 123.387 11.0153 121.343 11.0153ZM123.791 21.1284C123.221 21.8644 122.317 22.2205 121.2 22.2205C120.06 22.2205 119.18 21.8644 118.539 21.0809C117.897 20.345 117.588 19.2767 117.588 17.9236C117.588 16.5229 117.921 15.4546 118.539 14.695C119.18 13.9353 120.06 13.5554 121.177 13.5554C122.246 13.5554 123.126 13.9115 123.743 14.6475C124.361 15.3834 124.694 16.4517 124.694 17.8523C124.694 19.2767 124.385 20.3925 123.791 21.1284ZM144.397 13.8403V11.3002H141.283V7.40684L141.188 7.43058L138.241 8.30895L138.17 8.33269V11.3002H133.512V9.63838C133.512 8.87871 133.702 8.28521 134.034 7.90538C134.367 7.52554 134.866 7.33562 135.484 7.33562C135.912 7.33562 136.364 7.43058 136.863 7.64424L136.982 7.71546V5.03287L136.91 5.00913C136.482 4.86669 135.912 4.77173 135.175 4.77173C134.248 4.77173 133.44 4.98539 132.704 5.34148C131.967 5.74506 131.42 6.29107 131.016 7.02701C130.612 7.7392 130.398 8.54635 130.398 9.4722V11.3002H128.235V13.8166H130.398V24.452H133.512V13.8403H138.17V20.6062C138.17 23.3837 139.477 24.7844 142.091 24.7844C142.519 24.7844 142.971 24.7131 143.399 24.6419C143.85 24.547 144.183 24.4283 144.373 24.3333L144.397 24.3096V21.7694L144.278 21.8644C144.088 21.9831 143.921 22.078 143.636 22.1492C143.399 22.2205 143.185 22.2442 143.018 22.2442C142.4 22.2442 141.973 22.1018 141.664 21.7457C141.378 21.4133 141.236 20.8673 141.236 20.0601V13.8403H144.397Z" fill="#FAFAFA" fill-opacity="0.2"/>
<path d="M0.869141 0H15.4382V14.5525H0.869141V0Z" fill="#FAFAFA" fill-opacity="0.2"/>
<path d="M16.9592 6.10352e-05H31.5282V14.5525H16.9592V6.10352e-05Z" fill="#FAFAFA" fill-opacity="0.2"/>
<path d="M0.869156 16.072H15.4382V30.6244H0.869156V16.072Z" fill="#FAFAFA" fill-opacity="0.2"/>
<path d="M16.9592 16.072H31.5282V30.6244H16.9592V16.072Z" fill="#FAFAFA" fill-opacity="0.2"/>
</g>
<defs>
<clipPath id="clip0_1_482">
<rect width="143.551" height="30.6243" fill="white" transform="translate(0.869141)"/>
</clipPath>
</defs>
</svg>
