<svg width="144" height="72" viewBox="0 0 144 72" fill="none" xmlns="http://www.w3.org/2000/svg">
<g clip-path="url(#clip0_1_473)">
<path d="M77.3125 0.468265C76.8455 0.535148 76.3786 2.20722 75.4447 3.14358C74.7776 3.81241 73.9772 3.81241 73.5102 4.54812C73.3101 4.81566 73.4435 5.35072 73.2434 5.8189C72.8432 6.82214 71.5758 6.95591 71.5758 7.95915C71.5758 9.09616 72.7098 9.36369 73.6436 10.1663C74.3774 10.8351 74.5108 11.3033 75.3113 11.5708C76.0451 11.8384 77.1791 11.0358 78.1796 11.3033C79.0468 11.5708 79.8473 11.7715 80.0474 12.5741C80.2475 13.3767 80.0474 14.5806 79.0468 14.4468C78.6466 14.4468 77.1791 13.9117 75.4447 14.0455C73.1767 14.313 70.7086 14.9819 70.5085 17.4565C70.4417 18.8611 72.1094 20.3994 73.6436 20.1318C74.7776 19.9312 74.1773 18.5267 74.8443 17.9247C75.7115 17.1221 80.2475 20.8007 84.5167 20.8007C86.3178 20.8007 87.6519 20.3325 88.986 18.9279C89.0527 18.8611 89.2529 18.5267 89.453 18.5267C89.6531 18.5267 89.9199 18.7273 89.9866 18.7942C93.4553 21.5364 96.0569 27.0208 108.598 27.0877C110.399 27.0877 112.4 27.8903 114.068 29.4286C115.535 30.8331 116.402 32.9065 117.203 35.0467C118.537 38.2571 120.738 41.4006 124.207 44.8116C124.407 45.0123 127.209 47.2194 127.475 47.2863C127.475 47.2863 127.742 47.8214 127.676 48.0889C127.609 50.2292 127.275 56.2486 131.878 56.5162C133.012 56.583 132.745 55.7804 132.745 55.2454C132.745 54.2421 132.545 53.1051 133.145 52.1019C133.879 50.6305 131.544 49.9616 131.544 46.7512C131.611 44.3435 129.61 44.7448 128.543 42.9389C128.009 41.9357 127.409 41.2668 127.409 39.9961C127.609 32.7058 125.808 27.8903 125.007 26.7533C124.34 25.8169 123.673 25.5494 124.34 25.0812C128.142 22.6065 129.01 20.2656 129.01 20.2656C131.078 15.5838 132.812 11.2364 135.347 9.36369C135.814 8.9624 137.148 7.95915 137.948 7.62474C140.283 6.48773 141.484 5.88578 142.151 5.21695C143.151 4.21371 144.085 2.00657 143.085 0.668914C141.751 -1.00316 139.616 0.267617 138.615 0.936446C131.611 5.08319 130.611 12.3065 128.209 16.4533C126.275 19.7974 123.206 22.2721 120.405 22.4727C118.27 22.6734 116.002 22.2052 113.801 21.202C108.331 18.7942 105.329 15.7845 104.595 15.1825C103.128 14.0455 91.721 2.87605 82.4488 2.40787C82.4488 2.40787 81.3148 0.0669678 81.048 0.0669678C80.381 8.49217e-05 79.6472 1.47151 79.1802 1.67216C78.5799 2.14034 77.7794 0.3345 77.3125 0.468265ZM36.6218 66.9499C35.7546 66.9499 35.0875 66.2142 35.0208 65.3447V36.585H25.4152V68.2875C25.4152 69.8927 26.7493 71.1635 28.2168 71.1635H44.8266C46.4276 71.1635 47.6283 69.8927 47.6283 68.2875V36.6519H38.2227V65.4116C38.156 66.2811 37.489 66.9499 36.6218 66.9499ZM68.5073 36.6519H54.0321C52.3644 36.6519 50.9636 38.0565 50.9636 39.7285V71.1635H60.4358V42.4039C60.4358 41.4675 61.1696 40.7987 62.0368 40.7987C62.9707 40.7987 63.6377 41.4675 63.6377 42.4039V71.2304H73.11V42.2701C73.11 41.4675 73.8438 40.6649 74.7109 40.6649C75.5781 40.6649 76.3119 41.4006 76.3119 42.2701V71.0966H85.7841V39.6617C85.7841 37.9227 84.3833 36.585 82.7157 36.585H68.5073V36.6519ZM19.0781 62.4687H9.47243V71.1635H0.000167847V36.6519H19.2115C20.8792 36.6519 22.28 38.0565 22.28 39.7954V59.3921C22.28 61.1311 20.8792 62.4687 19.0781 62.4687ZM12.741 42.4039C12.741 41.4675 12.0073 40.7318 11.1401 40.7318H9.53913V58.1882H11.1401C12.0073 58.1882 12.741 57.5194 12.741 56.5162V42.4039ZM101.06 71.2973V62.6694H97.7912V71.2973H88.2523V39.9961C88.2523 38.2571 89.6531 36.9863 91.3207 36.9863H107.397C109.065 36.9863 110.465 38.3909 110.465 39.9961V71.2973H101.06ZM101.06 58.4558V42.6714C101.06 41.8688 100.326 41.1331 99.4589 41.1331C98.5917 41.1331 97.8579 41.8688 97.8579 42.6714V58.5226L101.06 58.4558Z" fill="#FAFAFA" fill-opacity="0.2"/>
<path d="M119.137 70.8959C116.535 70.8959 114.468 68.8225 114.468 66.2141C114.468 63.6057 116.535 61.5323 119.137 61.5323C121.738 61.5323 123.806 63.6057 123.806 66.2141C123.806 68.8225 121.738 70.8959 119.137 70.8959ZM119.137 62.268C116.936 62.268 115.201 64.0738 115.201 66.2141C115.201 68.3543 117.002 70.1602 119.137 70.1602C121.272 70.1602 123.073 68.3543 123.073 66.2141C123.073 64.0738 121.338 62.268 119.137 62.268Z" fill="#FAFAFA" fill-opacity="0.2"/>
<path d="M117.736 64.2747H119.27C119.604 64.2747 119.871 64.3415 120.071 64.5422C120.338 64.7428 120.471 65.0104 120.471 65.4117C120.471 65.9467 120.204 66.348 119.737 66.5487L120.671 68.3545H119.938L119.137 66.6156H118.403V68.3545H117.803V64.2747H117.736ZM118.337 66.0805H119.27C119.471 66.0805 119.671 66.0136 119.804 65.8798C119.938 65.7461 120.004 65.6123 120.004 65.4117C120.004 65.211 119.938 65.0104 119.804 64.9435C119.671 64.8766 119.537 64.8097 119.337 64.8097H118.403V66.0805H118.337Z" fill="#FAFAFA" fill-opacity="0.2"/>
</g>
<defs>
<clipPath id="clip0_1_473">
<rect width="143.551" height="71.2972" fill="white"/>
</clipPath>
</defs>
</svg>
