<svg width="144" height="44" viewBox="0 0 144 44" fill="none" xmlns="http://www.w3.org/2000/svg">
<path d="M34.9831 19.1427C28.148 15.079 16.8737 14.7053 10.3487 16.6879C9.30085 17.006 8.19286 16.4139 7.87536 15.3649C7.55786 14.3155 8.14875 13.207 9.19729 12.8881C16.6875 10.6117 29.1388 11.0515 37.0075 15.7277C37.9502 16.2876 38.2593 17.5062 37.7005 18.4483C37.1414 19.3917 35.9232 19.7027 34.9831 19.1427ZM34.7593 25.1615C34.2799 25.9405 33.2625 26.1846 32.4854 25.7066C26.787 22.1999 18.0976 21.1841 11.3559 23.2327C10.4816 23.4972 9.55821 23.0037 9.29275 22.1301C9.02923 21.2549 9.52241 20.3321 10.3951 20.066C18.0966 17.7264 27.6704 18.8596 34.2154 22.8862C34.9925 23.3653 35.2371 24.3844 34.7593 25.1615ZM32.1646 30.9418C31.7838 31.5672 30.97 31.7634 30.3476 31.3822C25.3681 28.3355 19.1007 27.6473 11.7197 29.3352C11.0083 29.4985 10.2995 29.0521 10.1372 28.3403C9.97433 27.6283 10.4183 26.9188 11.1313 26.7563C19.2085 24.9077 26.1373 25.7033 31.7263 29.1223C32.3495 29.5033 32.5457 30.3183 32.1646 30.9418ZM22.4401 0.323601C10.7294 0.323601 1.23557 9.82744 1.23557 21.5512C1.23557 33.276 10.7294 42.7796 22.4401 42.7796C34.1513 42.7796 43.6446 33.276 43.6446 21.5512C43.6446 9.82744 34.1513 0.323601 22.4401 0.323601Z" fill="#FAFAFA" fill-opacity="0.2"/>
<path d="M58.9257 19.9208C55.2646 19.0467 54.6126 18.4332 54.6126 17.1445C54.6126 15.9265 55.7581 15.1072 57.4612 15.1072C59.1121 15.1072 60.7488 15.7296 62.4653 17.0107C62.5172 17.0495 62.5823 17.0649 62.6464 17.0548C62.7104 17.0452 62.7669 17.0102 62.8046 16.957L64.5923 14.4342C64.6657 14.3306 64.6457 14.1871 64.5467 14.1077C62.5041 12.4669 60.2039 11.6692 57.5154 11.6692C53.5623 11.6692 50.801 14.0439 50.801 17.4421C50.801 21.0862 53.183 22.3763 57.2991 23.3722C60.8025 24.1801 61.3938 24.8568 61.3938 26.0669C61.3938 27.4076 60.1981 28.2411 58.274 28.2411C56.1371 28.2411 54.3938 27.5204 52.4438 25.8299C52.3955 25.7883 52.3291 25.7691 52.2679 25.7726C52.2036 25.7779 52.1446 25.8078 52.1035 25.8572L50.0991 28.2453C50.0151 28.3445 50.0257 28.4925 50.1227 28.5781C52.3917 30.6059 55.1818 31.6771 58.1929 31.6771C62.4527 31.6771 65.2053 29.3468 65.2053 25.7404C65.2053 22.6925 63.3862 21.0068 58.9257 19.9208Z" fill="#FAFAFA" fill-opacity="0.2"/>
<path d="M77.9349 24.0056C77.9349 26.5793 76.3513 28.3752 74.0838 28.3752C71.8422 28.3752 70.1512 26.4977 70.1512 24.0056C70.1512 21.5139 71.8422 19.6361 74.0838 19.6361C76.3148 19.6361 77.9349 21.4733 77.9349 24.0056ZM74.8427 16.3059C72.9963 16.3059 71.4819 17.0339 70.233 18.5257V16.8466C70.233 16.714 70.1257 16.606 69.9932 16.606H66.7152C66.5828 16.606 66.4757 16.714 66.4757 16.8466V35.5039C66.4757 35.6365 66.5828 35.7444 66.7152 35.7444H69.9932C70.1257 35.7444 70.233 35.6365 70.233 35.5039V29.6149C71.4821 31.0182 72.9968 31.7036 74.8427 31.7036C78.2734 31.7036 81.7464 29.0596 81.7464 24.0056C81.7464 18.9504 78.2734 16.3059 74.8427 16.3059Z" fill="#FAFAFA" fill-opacity="0.2"/>
<path d="M90.6487 28.4022C88.2987 28.4022 86.527 26.5119 86.527 24.0057C86.527 21.4889 88.2374 19.6625 90.5945 19.6625C92.9597 19.6625 94.7433 21.5527 94.7433 24.0606C94.7433 26.5771 93.0213 28.4022 90.6487 28.4022ZM90.6487 16.3059C86.2305 16.3059 82.7691 19.7119 82.7691 24.0606C82.7691 28.3621 86.2067 31.7324 90.5945 31.7324C95.0284 31.7324 98.5004 28.3379 98.5004 24.0057C98.5004 19.688 95.0522 16.3059 90.6487 16.3059Z" fill="#FAFAFA" fill-opacity="0.2"/>
<path d="M107.935 16.6061H104.328V12.9138C104.328 12.7812 104.221 12.6735 104.089 12.6735H100.811C100.678 12.6735 100.57 12.7812 100.57 12.9138V16.6061H98.9941C98.8619 16.6061 98.7553 16.7141 98.7553 16.8467V19.6672C98.7553 19.7997 98.8619 19.9076 98.9941 19.9076H100.57V27.206C100.57 30.1554 102.037 31.6507 104.928 31.6507C106.104 31.6507 107.08 31.4076 107.999 30.8857C108.074 30.8439 108.121 30.7633 108.121 30.6775V27.9916C108.121 27.9087 108.077 27.8306 108.007 27.7871C107.935 27.7422 107.846 27.7399 107.773 27.7762C107.142 28.0942 106.531 28.2411 105.849 28.2411C104.797 28.2411 104.328 27.7632 104.328 26.6917V19.9076H107.935C108.068 19.9076 108.174 19.7997 108.174 19.6672V16.8467C108.174 16.7141 108.068 16.6061 107.935 16.6061Z" fill="#FAFAFA" fill-opacity="0.2"/>
<path d="M120.504 16.6206V16.1671C120.504 14.833 121.015 14.238 122.161 14.238C122.844 14.238 123.393 14.3739 124.008 14.5792C124.084 14.603 124.163 14.5911 124.224 14.5458C124.288 14.5004 124.323 14.4276 124.323 14.3506V11.585C124.323 11.4793 124.255 11.3858 124.154 11.3548C123.504 11.1614 122.673 10.9627 121.429 10.9627C118.401 10.9627 116.801 12.6697 116.801 15.8974V16.5919H115.226C115.094 16.5919 114.985 16.6997 114.985 16.8322V19.6672C114.985 19.7997 115.094 19.9076 115.226 19.9076H116.801V31.165C116.801 31.2976 116.908 31.4054 117.04 31.4054H120.318C120.45 31.4054 120.558 31.2976 120.558 31.165V19.9076H123.619L128.308 31.1621C127.775 32.3445 127.252 32.5798 126.537 32.5798C125.96 32.5798 125.352 32.4071 124.73 32.0665C124.671 32.0342 124.602 32.029 124.539 32.0485C124.476 32.0708 124.424 32.1172 124.397 32.1783L123.286 34.6186C123.233 34.7339 123.278 34.8694 123.389 34.9291C124.549 35.558 125.596 35.8265 126.89 35.8265C129.311 35.8265 130.649 34.6975 131.828 31.6606L137.516 16.9481C137.544 16.8741 137.536 16.7907 137.49 16.7248C137.445 16.6599 137.373 16.6206 137.293 16.6206H133.88C133.778 16.6206 133.687 16.6855 133.653 16.7815L130.157 26.7787L126.328 16.7749C126.293 16.6819 126.204 16.6206 126.104 16.6206H120.504Z" fill="#FAFAFA" fill-opacity="0.2"/>
<path d="M113.218 16.6061H109.939C109.807 16.6061 109.699 16.7141 109.699 16.8467V31.165C109.699 31.2976 109.807 31.4053 109.939 31.4053H113.218C113.35 31.4053 113.458 31.2976 113.458 31.165V16.8467C113.458 16.7141 113.35 16.6061 113.218 16.6061Z" fill="#FAFAFA" fill-opacity="0.2"/>
<path d="M111.595 10.0867C110.297 10.0867 109.243 11.1394 109.243 12.4393C109.243 13.7402 110.297 14.794 111.595 14.794C112.893 14.794 113.946 13.7402 113.946 12.4393C113.946 11.1394 112.893 10.0867 111.595 10.0867Z" fill="#FAFAFA" fill-opacity="0.2"/>
<path d="M140.449 18.0304H139.848V18.7972H140.449C140.748 18.7972 140.927 18.6504 140.927 18.4136C140.927 18.1642 140.748 18.0304 140.449 18.0304ZM140.838 19.1243L141.491 20.039H140.94L140.353 19.2H139.848V20.039H139.387V17.6145H140.467C141.03 17.6145 141.4 17.9028 141.4 18.3878C141.4 18.7852 141.17 19.0281 140.838 19.1243ZM140.327 16.8079C139.145 16.8079 138.25 17.7481 138.25 18.8999C138.25 20.0509 139.138 20.9787 140.314 20.9787C141.496 20.9787 142.391 20.039 142.391 18.8867C142.391 17.7357 141.502 16.8079 140.327 16.8079ZM140.314 21.2097C139.017 21.2097 138.007 20.1665 138.007 18.8999C138.007 17.633 139.03 16.578 140.327 16.578C141.624 16.578 142.633 17.6211 142.633 18.8867C142.633 20.1536 141.612 21.2097 140.314 21.2097Z" fill="#FAFAFA" fill-opacity="0.2"/>
</svg>
