<svg width="60" height="60" viewBox="0 0 60 60" fill="none" xmlns="http://www.w3.org/2000/svg">
<g id="vuesax/bold/wallet-3">
<g id="wallet-3">
<path id="Vector" d="M55 31.55V36.7C55 38.1 53.85 39.25 52.425 39.25H47.6C44.9 39.25 42.425 37.275 42.2 34.575C42.05 33 42.65 31.525 43.7 30.5C44.625 29.55 45.9 29 47.3 29H52.425C53.85 29 55 30.15 55 31.55Z" fill="#F99300"/>
<path id="Vector_2" d="M38.45 34.9C38.225 32.275 39.175 29.7 41.075 27.825C42.675 26.2 44.9 25.25 47.3 25.25H48.725C49.425 25.25 50 24.675 49.9 23.975C49.225 19.125 45.025 15.375 40 15.375H15C9.475 15.375 5 19.85 5 25.375V42.875C5 48.4 9.475 52.875 15 52.875H40C45.05 52.875 49.225 49.125 49.9 44.275C50 43.575 49.425 43 48.725 43H47.6C42.85 43 38.85 39.45 38.45 34.9ZM32.5 29.75H17.5C16.475 29.75 15.625 28.925 15.625 27.875C15.625 26.825 16.475 26 17.5 26H32.5C33.525 26 34.375 26.85 34.375 27.875C34.375 28.9 33.525 29.75 32.5 29.75Z" fill="#F99300"/>
<path id="Vector_3" d="M35.525 9.95C36.175 10.625 35.6 11.625 34.65 11.625H15.075C12.35 11.625 9.80001 12.425 7.67501 13.8C6.70001 14.425 5.37501 13.75 5.85001 12.675C7.25001 9.4 10.525 7.125 14.3 7.125H28.35C31.25 7.125 33.825 8.15 35.525 9.95Z" fill="#F99300"/>
</g>
</g>
</svg>
